<svg xmlns="http://www.w3.org/2000/svg" xmlns:xlink="http://www.w3.org/1999/xlink" viewBox="0 0 67.98 83.02"><defs><style>.cls-1{fill-rule:evenodd;fill:url(#linear-gradient);}</style><linearGradient id="linear-gradient" x1="65.03" y1="74.87" x2="-0.99" y2="8.85" gradientUnits="userSpaceOnUse"><stop offset="0" stop-color="#cb6600"/><stop offset="1" stop-color="#ee9a45"/></linearGradient></defs><title>Asset 1</title><g id="Layer_2" data-name="Layer 2"><g id="Слой_1" data-name="Слой 1"><path class="cls-1" d="M61.53,75.1c-.66,6.08-4.34,8.43-11.6,7.83-16.52-1.37-31.46-3.55-37.59-4.48C5,77.33-.6,71.71.05,66.12c0-.24.08-.47.13-.69L7.85,0,49.18,4.11c3.87.39,8,2.88,7.49,9-.77,9.4-4.57,44.12-5.41,52.13-.45,4.38-3.43,7.35-9,6.8C31.05,71,15.6,68.78,6.84,67.5c.78,3.2,3.88,4.73,10.27,5.55,5.74.73,38.1,4.12,38.1,4.12l6.72-55-1.67-4.75.79-4.83a7.22,7.22,0,0,0,1.09.38c3.4.82,6.29,2.93,5.79,9.07C67.16,31.41,62.53,66,61.53,75.1ZM15.62,37.2l4.66,4.85,5.15-3.19a18.41,18.41,0,0,0,2.66.91c.23.07.46.12.69.17L31.44,45,38,43.42l-.31-5.36A11.39,11.39,0,0,0,40,35.64l5.65.43,1.87-6.46-4.94-2.67a13,13,0,0,0-.8-4.09l2.85-4.57-4.3-4.53-4.45,2.7a14.28,14.28,0,0,0-2.56-.93,13.82,13.82,0,0,0-2.45-.42l-2.35-4-6.06,1.46.28,5a12.57,12.57,0,0,0-2.81,3.1l-5-.17-1.77,6L17.86,29a11.71,11.71,0,0,0,.93,3.56ZM31.94,21.35c8.41,2.21,5.24,15.11-2.8,13C19.6,31.83,23.69,19.18,31.94,21.35Z"/></g></g></svg>