<svg xmlns="http://www.w3.org/2000/svg" xmlns:xlink="http://www.w3.org/1999/xlink" viewBox="0 0 74.25 92.59"><defs><style>.cls-1{fill-rule:evenodd;fill:url(#linear-gradient);}</style><linearGradient id="linear-gradient" x1="1.24" y1="14.05" x2="64.28" y2="77.09" gradientUnits="userSpaceOnUse"><stop offset="0" stop-color="#16b274"/><stop offset="1" stop-color="#007043"/></linearGradient></defs><title>Asset 1</title><g id="Layer_2" data-name="Layer 2"><g id="Слой_1" data-name="Слой 1"><path class="cls-1" d="M46,92.59,0,84.67,9.2,6.1,24.07,8.18c4.4-12.91,24.47-9.62,24.62,3.45l25.56,3.58-7,58.9ZM33.65,15.16,35,9.7l8.13,1.14c-1.55-7.08-12.94-5.95-13.8.76-.61,4.81-2.79,24-4.69,39.09-.76,6,9.16,8.39,10,.68l3-27.79,5.5.92s-2.41,26.2-2.58,28.16c-1.23,14.13-23.23,11-21.83-2.24,2-19.32,3.33-28.88,4.37-36.69l-9.27-1.25L6.45,80l34.82,6.39L44,66.25,62.34,69l5.5-49.22Z"/></g></g></svg>