<svg xmlns="http://www.w3.org/2000/svg" xmlns:xlink="http://www.w3.org/1999/xlink" viewBox="0 0 80.63 96.28"><defs><style>.cls-1{fill-rule:evenodd;fill:url(#linear-gradient);}</style><linearGradient id="linear-gradient" x1="18.57" y1="24.68" x2="73.99" y2="80.1" gradientUnits="userSpaceOnUse"><stop offset="0" stop-color="#4f4feb"/><stop offset="1" stop-color="#008"/></linearGradient></defs><title>Asset 2</title><g id="Layer_2" data-name="Layer 2"><g id="Слой_1" data-name="Слой 1"><path class="cls-1" d="M70.57,45.79a5.19,5.19,0,0,0-5.42-5.39l-.4,0-.62-.84A6.16,6.16,0,0,0,64.68,37a5.09,5.09,0,0,0-2.25-4.45L64.62,28a9.79,9.79,0,0,1,5,8.49,9.8,9.8,0,0,1,6,9.17c0,.4,0,3.16,0,3.16h-5S70.57,45.86,70.57,45.79ZM49,48.39,58.79,5.67l6.53,1.21L54.39,48.52ZM40.13,48l3.33-23.47a5.61,5.61,0,0,0-3.32-1.06,5.09,5.09,0,0,0-5.2,4l-.72.13a5.38,5.38,0,0,0-4.26-2,5.2,5.2,0,0,0-5.42,5.4c0,.16,0,.3,0,.45l-.93.61a5.87,5.87,0,0,0-2.51-.57A5.2,5.2,0,0,0,15.71,37a6.09,6.09,0,0,0,.69,2.92l-.35.56a5.29,5.29,0,0,0-.8-.05,5.19,5.19,0,0,0-5.42,5.39v3h-5V45.75a9.8,9.8,0,0,1,6-9.24,9.81,9.81,0,0,1,9.76-9.76,9.84,9.84,0,0,1,9.27-6,10.4,10.4,0,0,1,3.32.53,10,10,0,0,1,7-2.77,10.4,10.4,0,0,1,4.06.82L47,0l6.52.6L45.21,48.25Zm17.2,39.82.48,8.45L24.53,95.19,25,88.61c-13.93-4.94-25-17-25-36.09,10.14,0,66.51-.91,80.63-.91C80.63,70.36,70.45,82.4,57.33,87.83Z"/></g></g></svg>