<svg xmlns="http://www.w3.org/2000/svg" xmlns:xlink="http://www.w3.org/1999/xlink" viewBox="0 0 73.28 86.01"><defs><style>.cls-1{fill-rule:evenodd;fill:url(#linear-gradient);}</style><linearGradient id="linear-gradient" x1="68.48" y1="82.77" x2="-1.73" y2="12.57" gradientUnits="userSpaceOnUse"><stop offset="0" stop-color="#700000"/><stop offset="1" stop-color="#c71010"/></linearGradient></defs><title>Asset 1</title><g id="Layer_2" data-name="Layer 2"><g id="Слой_1" data-name="Слой 1"><path class="cls-1" d="M0,78.36,10.83,0,54.71,5l18.57,24L65.24,86ZM45.86,31.89,50.67,9.7,15.89,6.2,6,73.35,60.18,80,66.72,34.7ZM21.62,61.48c-.38-.49-3.72-3.29-4.35-4.16,8.9-9.91,30.63-9.79,36.66,3.33-1,.37-5.49,2.31-6.37,2.81C45,56.14,30.29,53.83,21.62,61.48ZM38.35,34.39l-3.67,2.76-5.51-6.64-7.51,4-3-5.07L25.46,26l-4.53-5.45,5.5-3.68,4.39,6.44,7.82-3.93L41,24.15l-7,3.79Z"/></g></g></svg>